<svg width="84" height="19" viewBox="0 0 84 19" fill="none" xmlns="http://www.w3.org/2000/svg">
<path d="M9.70312 18.2344C8.01562 18.2344 6.50391 17.8789 5.16797 17.168C3.83984 16.4492 2.79688 15.4219 2.03906 14.0859C1.28125 12.7422 0.902344 11.1992 0.902344 9.45703C0.902344 7.71484 1.28125 6.17578 2.03906 4.83984C2.79688 3.49609 3.83984 2.46875 5.16797 1.75781C6.50391 1.03906 8.01562 0.679688 9.70312 0.679688C11.6719 0.679688 13.3867 1.16016 14.8477 2.12109C16.3164 3.08203 17.3477 4.40234 17.9414 6.08203L14.2148 7.41797C13.8867 6.44922 13.3203 5.69141 12.5156 5.14453C11.7109 4.59766 10.7734 4.32422 9.70312 4.32422C8.29688 4.32422 7.14062 4.78906 6.23438 5.71875C5.32812 6.64844 4.875 7.89453 4.875 9.45703C4.875 11.0195 5.32812 12.2656 6.23438 13.1953C7.14062 14.125 8.29688 14.5898 9.70312 14.5898C10.7734 14.5898 11.7109 14.3164 12.5156 13.7695C13.3203 13.2227 13.8867 12.4648 14.2148 11.4961L17.9414 12.832C17.3477 14.5117 16.3164 15.832 14.8477 16.793C13.3867 17.7539 11.6719 18.2344 9.70312 18.2344ZM30.5625 14.7891C30.5625 16.0469 30.6602 17 30.8555 17.6484V18H27.3281L27.0586 16.6992C26.6445 17.207 26.0781 17.5898 25.3594 17.8477C24.6484 18.1055 23.9102 18.2344 23.1445 18.2344C22.7461 18.2344 22.3672 18.1992 22.0078 18.1289C21.6562 18.0586 21.3125 17.9414 20.9766 17.7773C20.6406 17.6133 20.3516 17.4062 20.1094 17.1562C19.8672 16.8984 19.6719 16.5742 19.5234 16.1836C19.3828 15.7852 19.3125 15.3359 19.3125 14.8359C19.3125 14.3359 19.3867 13.8906 19.5352 13.5C19.6914 13.1016 19.8906 12.7695 20.1328 12.5039C20.3828 12.2305 20.707 11.9883 21.1055 11.7773C21.5039 11.5586 21.9023 11.3828 22.3008 11.25C22.707 11.1094 23.1875 10.9766 23.7422 10.8516L25.7227 10.3711C26.168 10.2695 26.4805 10.1445 26.6602 9.99609C26.8398 9.84766 26.9297 9.64844 26.9297 9.39844C26.9297 9.07812 26.8242 8.82031 26.6133 8.625C26.4102 8.42188 26.1797 8.28906 25.9219 8.22656C25.6641 8.16406 25.375 8.13281 25.0547 8.13281C23.75 8.13281 23.0039 8.71875 22.8164 9.89062L19.4414 9.30469C19.7148 8.00781 20.3281 7.05859 21.2812 6.45703C22.2344 5.84766 23.5703 5.54297 25.2891 5.54297C25.8359 5.54297 26.3359 5.57422 26.7891 5.63672C27.2422 5.69922 27.7109 5.82812 28.1953 6.02344C28.6797 6.21094 29.0859 6.46094 29.4141 6.77344C29.75 7.08594 30.0234 7.51953 30.2344 8.07422C30.4531 8.62109 30.5625 9.26172 30.5625 9.99609V14.7891ZM24.3516 15.6914C25.1016 15.6914 25.75 15.4219 26.2969 14.8828C26.8516 14.3359 27.1289 13.5586 27.1289 12.5508L24.3047 13.418C23.8672 13.543 23.5312 13.6914 23.2969 13.8633C23.0703 14.0273 22.957 14.2656 22.957 14.5781C22.957 14.9297 23.0898 15.2031 23.3555 15.3984C23.6211 15.5938 23.9531 15.6914 24.3516 15.6914ZM37.2891 7.65234C37.6172 7.11328 38.1562 6.64453 38.9062 6.24609C39.6641 5.83984 40.4688 5.63281 41.3203 5.625V9.01172C39.9453 9.01172 38.9648 9.24219 38.3789 9.70312C37.793 10.1562 37.5 10.9961 37.5 12.2227V18H33.6328V5.76562H37.2891V7.65234ZM48.6445 18C47.4023 18 46.4453 17.6562 45.7734 16.9688C45.1016 16.2734 44.7656 15.293 44.7656 14.0273V8.68359H42.3984V5.76562H43.125C43.8281 5.76562 44.3516 5.58984 44.6953 5.23828C45.0469 4.88672 45.2227 4.24219 45.2227 3.30469V1.875H48.6562V5.76562H51.082V8.68359H48.6562V13.6055C48.6562 14.6211 49.1016 15.1289 49.9922 15.1289H51.082V18H48.6445ZM57.2578 7.65234C57.5859 7.11328 58.125 6.64453 58.875 6.24609C59.6328 5.83984 60.4375 5.63281 61.2891 5.625V9.01172C59.9141 9.01172 58.9336 9.24219 58.3477 9.70312C57.7617 10.1562 57.4688 10.9961 57.4688 12.2227V18H53.6016V5.76562H57.2578V7.65234ZM65.0859 4.26562C64.4922 4.26562 63.9844 4.05859 63.5625 3.64453C63.1406 3.23047 62.9297 2.72656 62.9297 2.13281C62.9297 1.54688 63.1406 1.04687 63.5625 0.632812C63.9844 0.21875 64.4922 0.0117188 65.0859 0.0117188C65.6641 0.0117188 66.1602 0.21875 66.5742 0.632812C66.9961 1.04687 67.207 1.54688 67.207 2.13281C67.207 2.71875 66.9961 3.22266 66.5742 3.64453C66.1602 4.05859 65.6641 4.26562 65.0859 4.26562ZM63.1406 18V5.76562H66.9844V18H63.1406ZM68.6133 18L73.7227 11.8711L68.6133 5.76562H73.3945L76.0312 9.375L78.6797 5.76562H83.4375L78.3047 11.8945L83.4375 18H78.6797L76.0547 14.4375L73.418 18H68.6133Z" fill="white"/>
</svg>
